<mxfile host="app.diagrams.net" modified="2024-06-11T10:36:48.495Z" agent="Mozilla/5.0 (Macintosh; Intel Mac OS X 10_15_7) AppleWebKit/537.36 (KHTML, like Gecko) Chrome/123.0.0.0 Safari/537.36" etag="4gQllw6Gje_EcolmnVox" version="24.5.2" type="device">
  <diagram name="Page-1" id="e6is2-aNEKdBWrmqQTX7">
    <mxGraphModel dx="954" dy="606" grid="1" gridSize="10" guides="1" tooltips="1" connect="1" arrows="1" fold="1" page="1" pageScale="1" pageWidth="827" pageHeight="1169" math="0" shadow="0">
      <root>
        <mxCell id="0" />
        <mxCell id="1" parent="0" />
        <mxCell id="Es9bNIUImqpmb22PlwWf-38" value="" style="rounded=0;whiteSpace=wrap;html=1;" vertex="1" parent="1">
          <mxGeometry x="480" y="185" width="310" height="170" as="geometry" />
        </mxCell>
        <mxCell id="Es9bNIUImqpmb22PlwWf-8" value="" style="rounded=0;whiteSpace=wrap;html=1;" vertex="1" parent="1">
          <mxGeometry x="50" y="185" width="310" height="170" as="geometry" />
        </mxCell>
        <mxCell id="Es9bNIUImqpmb22PlwWf-2" value="" style="rounded=1;whiteSpace=wrap;html=1;strokeWidth=2;fillWeight=4;hachureGap=8;hachureAngle=45;fillColor=#1ba1e2;sketch=1;rotation=-90;" vertex="1" parent="1">
          <mxGeometry x="30" y="260" width="120" height="20" as="geometry" />
        </mxCell>
        <mxCell id="Es9bNIUImqpmb22PlwWf-3" value="" style="rounded=1;whiteSpace=wrap;html=1;strokeWidth=2;fillWeight=4;hachureGap=8;hachureAngle=45;fillColor=#1ba1e2;sketch=1;rotation=-90;" vertex="1" parent="1">
          <mxGeometry x="90" y="260" width="120" height="20" as="geometry" />
        </mxCell>
        <mxCell id="Es9bNIUImqpmb22PlwWf-4" value="" style="rounded=1;whiteSpace=wrap;html=1;strokeWidth=2;fillWeight=4;hachureGap=8;hachureAngle=45;fillColor=#1ba1e2;sketch=1;rotation=-90;" vertex="1" parent="1">
          <mxGeometry x="150" y="260" width="120" height="20" as="geometry" />
        </mxCell>
        <mxCell id="Es9bNIUImqpmb22PlwWf-5" value="" style="rounded=1;whiteSpace=wrap;html=1;strokeWidth=2;fillWeight=4;hachureGap=8;hachureAngle=45;fillColor=#1ba1e2;sketch=1;rotation=-90;" vertex="1" parent="1">
          <mxGeometry x="210" y="260" width="120" height="20" as="geometry" />
        </mxCell>
        <mxCell id="Es9bNIUImqpmb22PlwWf-6" value="" style="rounded=1;whiteSpace=wrap;html=1;strokeWidth=2;fillWeight=4;hachureGap=8;hachureAngle=45;fillColor=#1ba1e2;sketch=1;rotation=-90;" vertex="1" parent="1">
          <mxGeometry x="270" y="260" width="120" height="20" as="geometry" />
        </mxCell>
        <mxCell id="Es9bNIUImqpmb22PlwWf-9" value="" style="endArrow=classic;html=1;rounded=0;exitX=0.5;exitY=1;exitDx=0;exitDy=0;entryX=0.5;entryY=0;entryDx=0;entryDy=0;" edge="1" parent="1" source="Es9bNIUImqpmb22PlwWf-2" target="Es9bNIUImqpmb22PlwWf-3">
          <mxGeometry relative="1" as="geometry">
            <mxPoint x="360" y="330" as="sourcePoint" />
            <mxPoint x="460" y="330" as="targetPoint" />
          </mxGeometry>
        </mxCell>
        <mxCell id="Es9bNIUImqpmb22PlwWf-11" value="h1" style="edgeLabel;html=1;align=center;verticalAlign=middle;resizable=0;points=[];" vertex="1" connectable="0" parent="Es9bNIUImqpmb22PlwWf-9">
          <mxGeometry x="0.15" y="3" relative="1" as="geometry">
            <mxPoint x="-5" y="-6" as="offset" />
          </mxGeometry>
        </mxCell>
        <mxCell id="Es9bNIUImqpmb22PlwWf-12" value="" style="endArrow=classic;html=1;rounded=0;exitX=0.5;exitY=1;exitDx=0;exitDy=0;entryX=0.5;entryY=0;entryDx=0;entryDy=0;" edge="1" parent="1">
          <mxGeometry relative="1" as="geometry">
            <mxPoint x="160" y="269.5" as="sourcePoint" />
            <mxPoint x="200" y="269.5" as="targetPoint" />
          </mxGeometry>
        </mxCell>
        <mxCell id="Es9bNIUImqpmb22PlwWf-13" value="h2" style="edgeLabel;html=1;align=center;verticalAlign=middle;resizable=0;points=[];" vertex="1" connectable="0" parent="Es9bNIUImqpmb22PlwWf-12">
          <mxGeometry x="0.15" y="3" relative="1" as="geometry">
            <mxPoint x="-5" y="-6" as="offset" />
          </mxGeometry>
        </mxCell>
        <mxCell id="Es9bNIUImqpmb22PlwWf-14" value="" style="endArrow=classic;html=1;rounded=0;exitX=0.5;exitY=1;exitDx=0;exitDy=0;entryX=0.5;entryY=0;entryDx=0;entryDy=0;" edge="1" parent="1">
          <mxGeometry relative="1" as="geometry">
            <mxPoint x="220" y="269.5" as="sourcePoint" />
            <mxPoint x="260" y="269.5" as="targetPoint" />
          </mxGeometry>
        </mxCell>
        <mxCell id="Es9bNIUImqpmb22PlwWf-15" value="h3" style="edgeLabel;html=1;align=center;verticalAlign=middle;resizable=0;points=[];" vertex="1" connectable="0" parent="Es9bNIUImqpmb22PlwWf-14">
          <mxGeometry x="0.15" y="3" relative="1" as="geometry">
            <mxPoint x="-5" y="-6" as="offset" />
          </mxGeometry>
        </mxCell>
        <mxCell id="Es9bNIUImqpmb22PlwWf-16" value="" style="endArrow=classic;html=1;rounded=0;exitX=0.5;exitY=1;exitDx=0;exitDy=0;entryX=0.5;entryY=0;entryDx=0;entryDy=0;" edge="1" parent="1">
          <mxGeometry relative="1" as="geometry">
            <mxPoint x="280" y="269.5" as="sourcePoint" />
            <mxPoint x="320" y="269.5" as="targetPoint" />
          </mxGeometry>
        </mxCell>
        <mxCell id="Es9bNIUImqpmb22PlwWf-17" value="h4" style="edgeLabel;html=1;align=center;verticalAlign=middle;resizable=0;points=[];" vertex="1" connectable="0" parent="Es9bNIUImqpmb22PlwWf-16">
          <mxGeometry x="0.15" y="3" relative="1" as="geometry">
            <mxPoint x="-5" y="-6" as="offset" />
          </mxGeometry>
        </mxCell>
        <mxCell id="Es9bNIUImqpmb22PlwWf-18" value="" style="endArrow=classic;html=1;rounded=0;entryX=0;entryY=0.5;entryDx=0;entryDy=0;" edge="1" parent="1">
          <mxGeometry relative="1" as="geometry">
            <mxPoint x="89" y="370" as="sourcePoint" />
            <mxPoint x="89" y="330" as="targetPoint" />
          </mxGeometry>
        </mxCell>
        <mxCell id="Es9bNIUImqpmb22PlwWf-19" value="x1" style="edgeLabel;resizable=0;html=1;;align=center;verticalAlign=middle;fontStyle=1" connectable="0" vertex="1" parent="Es9bNIUImqpmb22PlwWf-18">
          <mxGeometry relative="1" as="geometry">
            <mxPoint y="29" as="offset" />
          </mxGeometry>
        </mxCell>
        <mxCell id="Es9bNIUImqpmb22PlwWf-20" value="" style="endArrow=classic;html=1;rounded=0;entryX=0;entryY=0.5;entryDx=0;entryDy=0;" edge="1" parent="1">
          <mxGeometry relative="1" as="geometry">
            <mxPoint x="150" y="370" as="sourcePoint" />
            <mxPoint x="150" y="330" as="targetPoint" />
          </mxGeometry>
        </mxCell>
        <mxCell id="Es9bNIUImqpmb22PlwWf-21" value="x2" style="edgeLabel;resizable=0;html=1;;align=center;verticalAlign=middle;fontStyle=1" connectable="0" vertex="1" parent="Es9bNIUImqpmb22PlwWf-20">
          <mxGeometry relative="1" as="geometry">
            <mxPoint y="29" as="offset" />
          </mxGeometry>
        </mxCell>
        <mxCell id="Es9bNIUImqpmb22PlwWf-22" value="" style="endArrow=classic;html=1;rounded=0;entryX=0;entryY=0.5;entryDx=0;entryDy=0;" edge="1" parent="1">
          <mxGeometry relative="1" as="geometry">
            <mxPoint x="210" y="370" as="sourcePoint" />
            <mxPoint x="210" y="330" as="targetPoint" />
          </mxGeometry>
        </mxCell>
        <mxCell id="Es9bNIUImqpmb22PlwWf-23" value="x3" style="edgeLabel;resizable=0;html=1;;align=center;verticalAlign=middle;fontStyle=1" connectable="0" vertex="1" parent="Es9bNIUImqpmb22PlwWf-22">
          <mxGeometry relative="1" as="geometry">
            <mxPoint y="29" as="offset" />
          </mxGeometry>
        </mxCell>
        <mxCell id="Es9bNIUImqpmb22PlwWf-24" value="" style="endArrow=classic;html=1;rounded=0;entryX=0;entryY=0.5;entryDx=0;entryDy=0;" edge="1" parent="1">
          <mxGeometry relative="1" as="geometry">
            <mxPoint x="270" y="370" as="sourcePoint" />
            <mxPoint x="270" y="330" as="targetPoint" />
          </mxGeometry>
        </mxCell>
        <mxCell id="Es9bNIUImqpmb22PlwWf-25" value="x4" style="edgeLabel;resizable=0;html=1;;align=center;verticalAlign=middle;fontStyle=1" connectable="0" vertex="1" parent="Es9bNIUImqpmb22PlwWf-24">
          <mxGeometry relative="1" as="geometry">
            <mxPoint y="29" as="offset" />
          </mxGeometry>
        </mxCell>
        <mxCell id="Es9bNIUImqpmb22PlwWf-26" value="" style="endArrow=classic;html=1;rounded=0;entryX=0;entryY=0.5;entryDx=0;entryDy=0;" edge="1" parent="1">
          <mxGeometry relative="1" as="geometry">
            <mxPoint x="330" y="370" as="sourcePoint" />
            <mxPoint x="330" y="330" as="targetPoint" />
          </mxGeometry>
        </mxCell>
        <mxCell id="Es9bNIUImqpmb22PlwWf-27" value="x5" style="edgeLabel;resizable=0;html=1;;align=center;verticalAlign=middle;fontStyle=1" connectable="0" vertex="1" parent="Es9bNIUImqpmb22PlwWf-26">
          <mxGeometry relative="1" as="geometry">
            <mxPoint y="29" as="offset" />
          </mxGeometry>
        </mxCell>
        <mxCell id="Es9bNIUImqpmb22PlwWf-28" value="" style="endArrow=classic;html=1;rounded=0;entryX=0;entryY=0.5;entryDx=0;entryDy=0;exitX=1;exitY=0.5;exitDx=0;exitDy=0;" edge="1" parent="1" source="Es9bNIUImqpmb22PlwWf-2">
          <mxGeometry relative="1" as="geometry">
            <mxPoint x="89" y="200" as="sourcePoint" />
            <mxPoint x="89" y="160" as="targetPoint" />
          </mxGeometry>
        </mxCell>
        <mxCell id="Es9bNIUImqpmb22PlwWf-29" value="e1" style="edgeLabel;resizable=0;html=1;;align=center;verticalAlign=middle;fontStyle=1" connectable="0" vertex="1" parent="Es9bNIUImqpmb22PlwWf-28">
          <mxGeometry relative="1" as="geometry">
            <mxPoint x="1" y="-37" as="offset" />
          </mxGeometry>
        </mxCell>
        <mxCell id="Es9bNIUImqpmb22PlwWf-30" value="" style="endArrow=classic;html=1;rounded=0;entryX=0;entryY=0.5;entryDx=0;entryDy=0;exitX=1;exitY=0.5;exitDx=0;exitDy=0;" edge="1" parent="1">
          <mxGeometry relative="1" as="geometry">
            <mxPoint x="150" y="210" as="sourcePoint" />
            <mxPoint x="149" y="160" as="targetPoint" />
          </mxGeometry>
        </mxCell>
        <mxCell id="Es9bNIUImqpmb22PlwWf-31" value="e2" style="edgeLabel;resizable=0;html=1;;align=center;verticalAlign=middle;fontStyle=1" connectable="0" vertex="1" parent="Es9bNIUImqpmb22PlwWf-30">
          <mxGeometry relative="1" as="geometry">
            <mxPoint x="1" y="-37" as="offset" />
          </mxGeometry>
        </mxCell>
        <mxCell id="Es9bNIUImqpmb22PlwWf-32" value="" style="endArrow=classic;html=1;rounded=0;entryX=0;entryY=0.5;entryDx=0;entryDy=0;exitX=1;exitY=0.5;exitDx=0;exitDy=0;" edge="1" parent="1">
          <mxGeometry relative="1" as="geometry">
            <mxPoint x="210" y="210" as="sourcePoint" />
            <mxPoint x="209" y="160" as="targetPoint" />
          </mxGeometry>
        </mxCell>
        <mxCell id="Es9bNIUImqpmb22PlwWf-33" value="e3" style="edgeLabel;resizable=0;html=1;;align=center;verticalAlign=middle;fontStyle=1" connectable="0" vertex="1" parent="Es9bNIUImqpmb22PlwWf-32">
          <mxGeometry relative="1" as="geometry">
            <mxPoint x="1" y="-37" as="offset" />
          </mxGeometry>
        </mxCell>
        <mxCell id="Es9bNIUImqpmb22PlwWf-34" value="" style="endArrow=classic;html=1;rounded=0;entryX=0;entryY=0.5;entryDx=0;entryDy=0;exitX=1;exitY=0.5;exitDx=0;exitDy=0;" edge="1" parent="1">
          <mxGeometry relative="1" as="geometry">
            <mxPoint x="271" y="210" as="sourcePoint" />
            <mxPoint x="270" y="160" as="targetPoint" />
          </mxGeometry>
        </mxCell>
        <mxCell id="Es9bNIUImqpmb22PlwWf-35" value="e4" style="edgeLabel;resizable=0;html=1;;align=center;verticalAlign=middle;fontStyle=1" connectable="0" vertex="1" parent="Es9bNIUImqpmb22PlwWf-34">
          <mxGeometry relative="1" as="geometry">
            <mxPoint x="1" y="-37" as="offset" />
          </mxGeometry>
        </mxCell>
        <mxCell id="Es9bNIUImqpmb22PlwWf-36" value="" style="endArrow=classic;html=1;rounded=0;exitX=1;exitY=0.5;exitDx=0;exitDy=0;entryX=0.5;entryY=0;entryDx=0;entryDy=0;" edge="1" parent="1" target="Es9bNIUImqpmb22PlwWf-39">
          <mxGeometry relative="1" as="geometry">
            <mxPoint x="330.5" y="210" as="sourcePoint" />
            <mxPoint x="520" y="280" as="targetPoint" />
            <Array as="points">
              <mxPoint x="330" y="160" />
              <mxPoint x="440" y="160" />
              <mxPoint x="440" y="270" />
            </Array>
          </mxGeometry>
        </mxCell>
        <mxCell id="Es9bNIUImqpmb22PlwWf-37" value="e5" style="edgeLabel;resizable=0;html=1;;align=center;verticalAlign=middle;fontStyle=1" connectable="0" vertex="1" parent="Es9bNIUImqpmb22PlwWf-36">
          <mxGeometry relative="1" as="geometry">
            <mxPoint x="-110" y="-21" as="offset" />
          </mxGeometry>
        </mxCell>
        <mxCell id="Es9bNIUImqpmb22PlwWf-39" value="" style="rounded=1;whiteSpace=wrap;html=1;strokeWidth=2;fillWeight=4;hachureGap=8;hachureAngle=45;fillColor=#FF9933;sketch=1;rotation=-90;" vertex="1" parent="1">
          <mxGeometry x="460" y="260" width="120" height="20" as="geometry" />
        </mxCell>
        <mxCell id="Es9bNIUImqpmb22PlwWf-40" value="" style="rounded=1;whiteSpace=wrap;html=1;strokeWidth=2;fillWeight=4;hachureGap=8;hachureAngle=45;fillColor=#FF9933;sketch=1;rotation=-90;" vertex="1" parent="1">
          <mxGeometry x="520" y="260" width="120" height="20" as="geometry" />
        </mxCell>
        <mxCell id="Es9bNIUImqpmb22PlwWf-41" value="" style="rounded=1;whiteSpace=wrap;html=1;strokeWidth=2;fillWeight=4;hachureGap=8;hachureAngle=45;fillColor=#FF9933;sketch=1;rotation=-90;" vertex="1" parent="1">
          <mxGeometry x="580" y="260" width="120" height="20" as="geometry" />
        </mxCell>
        <mxCell id="Es9bNIUImqpmb22PlwWf-42" value="" style="rounded=1;whiteSpace=wrap;html=1;strokeWidth=2;fillWeight=4;hachureGap=8;hachureAngle=45;fillColor=#FF9933;sketch=1;rotation=-90;" vertex="1" parent="1">
          <mxGeometry x="640" y="260" width="120" height="20" as="geometry" />
        </mxCell>
        <mxCell id="Es9bNIUImqpmb22PlwWf-43" value="" style="rounded=1;whiteSpace=wrap;html=1;strokeWidth=2;fillWeight=4;hachureGap=8;hachureAngle=45;fillColor=#FF9933;sketch=1;rotation=-90;" vertex="1" parent="1">
          <mxGeometry x="700" y="260" width="120" height="20" as="geometry" />
        </mxCell>
        <mxCell id="Es9bNIUImqpmb22PlwWf-44" value="" style="endArrow=classic;html=1;rounded=0;exitX=0.5;exitY=1;exitDx=0;exitDy=0;entryX=0.5;entryY=0;entryDx=0;entryDy=0;" edge="1" parent="1" source="Es9bNIUImqpmb22PlwWf-39" target="Es9bNIUImqpmb22PlwWf-40">
          <mxGeometry relative="1" as="geometry">
            <mxPoint x="790" y="330" as="sourcePoint" />
            <mxPoint x="890" y="330" as="targetPoint" />
          </mxGeometry>
        </mxCell>
        <mxCell id="Es9bNIUImqpmb22PlwWf-45" value="h1" style="edgeLabel;html=1;align=center;verticalAlign=middle;resizable=0;points=[];" vertex="1" connectable="0" parent="Es9bNIUImqpmb22PlwWf-44">
          <mxGeometry x="0.15" y="3" relative="1" as="geometry">
            <mxPoint x="-5" y="-6" as="offset" />
          </mxGeometry>
        </mxCell>
        <mxCell id="Es9bNIUImqpmb22PlwWf-46" value="" style="endArrow=classic;html=1;rounded=0;exitX=0.5;exitY=1;exitDx=0;exitDy=0;entryX=0.5;entryY=0;entryDx=0;entryDy=0;" edge="1" parent="1">
          <mxGeometry relative="1" as="geometry">
            <mxPoint x="590" y="269.5" as="sourcePoint" />
            <mxPoint x="630" y="269.5" as="targetPoint" />
          </mxGeometry>
        </mxCell>
        <mxCell id="Es9bNIUImqpmb22PlwWf-47" value="h2" style="edgeLabel;html=1;align=center;verticalAlign=middle;resizable=0;points=[];" vertex="1" connectable="0" parent="Es9bNIUImqpmb22PlwWf-46">
          <mxGeometry x="0.15" y="3" relative="1" as="geometry">
            <mxPoint x="-5" y="-6" as="offset" />
          </mxGeometry>
        </mxCell>
        <mxCell id="Es9bNIUImqpmb22PlwWf-48" value="" style="endArrow=classic;html=1;rounded=0;exitX=0.5;exitY=1;exitDx=0;exitDy=0;entryX=0.5;entryY=0;entryDx=0;entryDy=0;" edge="1" parent="1">
          <mxGeometry relative="1" as="geometry">
            <mxPoint x="650" y="269.5" as="sourcePoint" />
            <mxPoint x="690" y="269.5" as="targetPoint" />
          </mxGeometry>
        </mxCell>
        <mxCell id="Es9bNIUImqpmb22PlwWf-49" value="h3" style="edgeLabel;html=1;align=center;verticalAlign=middle;resizable=0;points=[];" vertex="1" connectable="0" parent="Es9bNIUImqpmb22PlwWf-48">
          <mxGeometry x="0.15" y="3" relative="1" as="geometry">
            <mxPoint x="-5" y="-6" as="offset" />
          </mxGeometry>
        </mxCell>
        <mxCell id="Es9bNIUImqpmb22PlwWf-50" value="" style="endArrow=classic;html=1;rounded=0;exitX=0.5;exitY=1;exitDx=0;exitDy=0;entryX=0.5;entryY=0;entryDx=0;entryDy=0;" edge="1" parent="1">
          <mxGeometry relative="1" as="geometry">
            <mxPoint x="710" y="269.5" as="sourcePoint" />
            <mxPoint x="750" y="269.5" as="targetPoint" />
          </mxGeometry>
        </mxCell>
        <mxCell id="Es9bNIUImqpmb22PlwWf-51" value="h4" style="edgeLabel;html=1;align=center;verticalAlign=middle;resizable=0;points=[];" vertex="1" connectable="0" parent="Es9bNIUImqpmb22PlwWf-50">
          <mxGeometry x="0.15" y="3" relative="1" as="geometry">
            <mxPoint x="-5" y="-6" as="offset" />
          </mxGeometry>
        </mxCell>
        <mxCell id="Es9bNIUImqpmb22PlwWf-52" value="" style="endArrow=classic;html=1;rounded=0;entryX=0;entryY=0.5;entryDx=0;entryDy=0;" edge="1" parent="1">
          <mxGeometry relative="1" as="geometry">
            <mxPoint x="519" y="370" as="sourcePoint" />
            <mxPoint x="519" y="330" as="targetPoint" />
          </mxGeometry>
        </mxCell>
        <mxCell id="Es9bNIUImqpmb22PlwWf-53" value="s0" style="edgeLabel;resizable=0;html=1;;align=center;verticalAlign=middle;fontStyle=1" connectable="0" vertex="1" parent="Es9bNIUImqpmb22PlwWf-52">
          <mxGeometry relative="1" as="geometry">
            <mxPoint y="29" as="offset" />
          </mxGeometry>
        </mxCell>
        <mxCell id="Es9bNIUImqpmb22PlwWf-54" value="" style="endArrow=classic;html=1;rounded=0;entryX=0;entryY=0.5;entryDx=0;entryDy=0;" edge="1" parent="1">
          <mxGeometry relative="1" as="geometry">
            <mxPoint x="580" y="370" as="sourcePoint" />
            <mxPoint x="580" y="330" as="targetPoint" />
          </mxGeometry>
        </mxCell>
        <mxCell id="Es9bNIUImqpmb22PlwWf-55" value="o1" style="edgeLabel;resizable=0;html=1;;align=center;verticalAlign=middle;fontStyle=1" connectable="0" vertex="1" parent="Es9bNIUImqpmb22PlwWf-54">
          <mxGeometry relative="1" as="geometry">
            <mxPoint y="29" as="offset" />
          </mxGeometry>
        </mxCell>
        <mxCell id="Es9bNIUImqpmb22PlwWf-56" value="" style="endArrow=classic;html=1;rounded=0;entryX=0;entryY=0.5;entryDx=0;entryDy=0;" edge="1" parent="1">
          <mxGeometry relative="1" as="geometry">
            <mxPoint x="640" y="370" as="sourcePoint" />
            <mxPoint x="640" y="330" as="targetPoint" />
          </mxGeometry>
        </mxCell>
        <mxCell id="Es9bNIUImqpmb22PlwWf-57" value="o2" style="edgeLabel;resizable=0;html=1;;align=center;verticalAlign=middle;fontStyle=1" connectable="0" vertex="1" parent="Es9bNIUImqpmb22PlwWf-56">
          <mxGeometry relative="1" as="geometry">
            <mxPoint y="29" as="offset" />
          </mxGeometry>
        </mxCell>
        <mxCell id="Es9bNIUImqpmb22PlwWf-58" value="" style="endArrow=classic;html=1;rounded=0;entryX=0;entryY=0.5;entryDx=0;entryDy=0;" edge="1" parent="1">
          <mxGeometry relative="1" as="geometry">
            <mxPoint x="700" y="370" as="sourcePoint" />
            <mxPoint x="700" y="330" as="targetPoint" />
          </mxGeometry>
        </mxCell>
        <mxCell id="Es9bNIUImqpmb22PlwWf-59" value="o3" style="edgeLabel;resizable=0;html=1;;align=center;verticalAlign=middle;fontStyle=1" connectable="0" vertex="1" parent="Es9bNIUImqpmb22PlwWf-58">
          <mxGeometry relative="1" as="geometry">
            <mxPoint y="29" as="offset" />
          </mxGeometry>
        </mxCell>
        <mxCell id="Es9bNIUImqpmb22PlwWf-60" value="" style="endArrow=classic;html=1;rounded=0;entryX=0;entryY=0.5;entryDx=0;entryDy=0;" edge="1" parent="1">
          <mxGeometry relative="1" as="geometry">
            <mxPoint x="760" y="370" as="sourcePoint" />
            <mxPoint x="760" y="330" as="targetPoint" />
          </mxGeometry>
        </mxCell>
        <mxCell id="Es9bNIUImqpmb22PlwWf-61" value="o4" style="edgeLabel;resizable=0;html=1;;align=center;verticalAlign=middle;fontStyle=1" connectable="0" vertex="1" parent="Es9bNIUImqpmb22PlwWf-60">
          <mxGeometry relative="1" as="geometry">
            <mxPoint y="29" as="offset" />
          </mxGeometry>
        </mxCell>
        <mxCell id="Es9bNIUImqpmb22PlwWf-62" value="" style="endArrow=classic;html=1;rounded=0;entryX=0;entryY=0.5;entryDx=0;entryDy=0;exitX=1;exitY=0.5;exitDx=0;exitDy=0;" edge="1" parent="1">
          <mxGeometry relative="1" as="geometry">
            <mxPoint x="519" y="210" as="sourcePoint" />
            <mxPoint x="518" y="160" as="targetPoint" />
          </mxGeometry>
        </mxCell>
        <mxCell id="Es9bNIUImqpmb22PlwWf-63" value="o1" style="edgeLabel;resizable=0;html=1;;align=center;verticalAlign=middle;fontStyle=1" connectable="0" vertex="1" parent="Es9bNIUImqpmb22PlwWf-62">
          <mxGeometry relative="1" as="geometry">
            <mxPoint x="1" y="-37" as="offset" />
          </mxGeometry>
        </mxCell>
        <mxCell id="Es9bNIUImqpmb22PlwWf-64" value="" style="endArrow=classic;html=1;rounded=0;entryX=0;entryY=0.5;entryDx=0;entryDy=0;exitX=1;exitY=0.5;exitDx=0;exitDy=0;" edge="1" parent="1">
          <mxGeometry relative="1" as="geometry">
            <mxPoint x="579" y="210" as="sourcePoint" />
            <mxPoint x="578" y="160" as="targetPoint" />
          </mxGeometry>
        </mxCell>
        <mxCell id="Es9bNIUImqpmb22PlwWf-65" value="o2" style="edgeLabel;resizable=0;html=1;;align=center;verticalAlign=middle;fontStyle=1" connectable="0" vertex="1" parent="Es9bNIUImqpmb22PlwWf-64">
          <mxGeometry relative="1" as="geometry">
            <mxPoint x="1" y="-37" as="offset" />
          </mxGeometry>
        </mxCell>
        <mxCell id="Es9bNIUImqpmb22PlwWf-66" value="" style="endArrow=classic;html=1;rounded=0;entryX=0;entryY=0.5;entryDx=0;entryDy=0;exitX=1;exitY=0.5;exitDx=0;exitDy=0;" edge="1" parent="1">
          <mxGeometry relative="1" as="geometry">
            <mxPoint x="639" y="210" as="sourcePoint" />
            <mxPoint x="638" y="160" as="targetPoint" />
          </mxGeometry>
        </mxCell>
        <mxCell id="Es9bNIUImqpmb22PlwWf-67" value="o3" style="edgeLabel;resizable=0;html=1;;align=center;verticalAlign=middle;fontStyle=1" connectable="0" vertex="1" parent="Es9bNIUImqpmb22PlwWf-66">
          <mxGeometry relative="1" as="geometry">
            <mxPoint x="1" y="-37" as="offset" />
          </mxGeometry>
        </mxCell>
        <mxCell id="Es9bNIUImqpmb22PlwWf-68" value="" style="endArrow=classic;html=1;rounded=0;entryX=0;entryY=0.5;entryDx=0;entryDy=0;exitX=1;exitY=0.5;exitDx=0;exitDy=0;" edge="1" parent="1">
          <mxGeometry relative="1" as="geometry">
            <mxPoint x="700" y="210" as="sourcePoint" />
            <mxPoint x="699" y="160" as="targetPoint" />
          </mxGeometry>
        </mxCell>
        <mxCell id="Es9bNIUImqpmb22PlwWf-69" value="o4" style="edgeLabel;resizable=0;html=1;;align=center;verticalAlign=middle;fontStyle=1" connectable="0" vertex="1" parent="Es9bNIUImqpmb22PlwWf-68">
          <mxGeometry relative="1" as="geometry">
            <mxPoint x="1" y="-37" as="offset" />
          </mxGeometry>
        </mxCell>
        <mxCell id="Es9bNIUImqpmb22PlwWf-70" value="" style="endArrow=classic;html=1;rounded=0;entryX=0;entryY=0.5;entryDx=0;entryDy=0;exitX=1;exitY=0.5;exitDx=0;exitDy=0;" edge="1" parent="1">
          <mxGeometry relative="1" as="geometry">
            <mxPoint x="760.5" y="210" as="sourcePoint" />
            <mxPoint x="759.5" y="160" as="targetPoint" />
          </mxGeometry>
        </mxCell>
        <mxCell id="Es9bNIUImqpmb22PlwWf-71" value="o5" style="edgeLabel;resizable=0;html=1;;align=center;verticalAlign=middle;fontStyle=1" connectable="0" vertex="1" parent="Es9bNIUImqpmb22PlwWf-70">
          <mxGeometry relative="1" as="geometry">
            <mxPoint x="1" y="-37" as="offset" />
          </mxGeometry>
        </mxCell>
        <mxCell id="Es9bNIUImqpmb22PlwWf-72" value="" style="rounded=0;whiteSpace=wrap;html=1;" vertex="1" parent="1">
          <mxGeometry x="469" y="595" width="310" height="170" as="geometry" />
        </mxCell>
        <mxCell id="Es9bNIUImqpmb22PlwWf-73" value="" style="rounded=0;whiteSpace=wrap;html=1;" vertex="1" parent="1">
          <mxGeometry x="39" y="595" width="310" height="170" as="geometry" />
        </mxCell>
        <mxCell id="Es9bNIUImqpmb22PlwWf-74" value="" style="rounded=1;whiteSpace=wrap;html=1;strokeWidth=2;fillWeight=4;hachureGap=8;hachureAngle=45;fillColor=#1ba1e2;sketch=1;rotation=-90;" vertex="1" parent="1">
          <mxGeometry x="19" y="670" width="120" height="20" as="geometry" />
        </mxCell>
        <mxCell id="Es9bNIUImqpmb22PlwWf-75" value="" style="rounded=1;whiteSpace=wrap;html=1;strokeWidth=2;fillWeight=4;hachureGap=8;hachureAngle=45;fillColor=#1ba1e2;sketch=1;rotation=-90;" vertex="1" parent="1">
          <mxGeometry x="79" y="670" width="120" height="20" as="geometry" />
        </mxCell>
        <mxCell id="Es9bNIUImqpmb22PlwWf-76" value="" style="rounded=1;whiteSpace=wrap;html=1;strokeWidth=2;fillWeight=4;hachureGap=8;hachureAngle=45;fillColor=#1ba1e2;sketch=1;rotation=-90;" vertex="1" parent="1">
          <mxGeometry x="139" y="670" width="120" height="20" as="geometry" />
        </mxCell>
        <mxCell id="Es9bNIUImqpmb22PlwWf-77" value="" style="rounded=1;whiteSpace=wrap;html=1;strokeWidth=2;fillWeight=4;hachureGap=8;hachureAngle=45;fillColor=#1ba1e2;sketch=1;rotation=-90;" vertex="1" parent="1">
          <mxGeometry x="199" y="670" width="120" height="20" as="geometry" />
        </mxCell>
        <mxCell id="Es9bNIUImqpmb22PlwWf-78" value="" style="rounded=1;whiteSpace=wrap;html=1;strokeWidth=2;fillWeight=4;hachureGap=8;hachureAngle=45;fillColor=#1ba1e2;sketch=1;rotation=-90;" vertex="1" parent="1">
          <mxGeometry x="259" y="670" width="120" height="20" as="geometry" />
        </mxCell>
        <mxCell id="Es9bNIUImqpmb22PlwWf-79" value="" style="endArrow=classic;html=1;rounded=0;exitX=0.5;exitY=1;exitDx=0;exitDy=0;entryX=0.5;entryY=0;entryDx=0;entryDy=0;" edge="1" parent="1" source="Es9bNIUImqpmb22PlwWf-74" target="Es9bNIUImqpmb22PlwWf-75">
          <mxGeometry relative="1" as="geometry">
            <mxPoint x="349" y="740" as="sourcePoint" />
            <mxPoint x="449" y="740" as="targetPoint" />
          </mxGeometry>
        </mxCell>
        <mxCell id="Es9bNIUImqpmb22PlwWf-80" value="h1" style="edgeLabel;html=1;align=center;verticalAlign=middle;resizable=0;points=[];" vertex="1" connectable="0" parent="Es9bNIUImqpmb22PlwWf-79">
          <mxGeometry x="0.15" y="3" relative="1" as="geometry">
            <mxPoint x="-5" y="-6" as="offset" />
          </mxGeometry>
        </mxCell>
        <mxCell id="Es9bNIUImqpmb22PlwWf-81" value="" style="endArrow=classic;html=1;rounded=0;exitX=0.5;exitY=1;exitDx=0;exitDy=0;entryX=0.5;entryY=0;entryDx=0;entryDy=0;" edge="1" parent="1">
          <mxGeometry relative="1" as="geometry">
            <mxPoint x="149" y="679.5" as="sourcePoint" />
            <mxPoint x="189" y="679.5" as="targetPoint" />
          </mxGeometry>
        </mxCell>
        <mxCell id="Es9bNIUImqpmb22PlwWf-82" value="h2" style="edgeLabel;html=1;align=center;verticalAlign=middle;resizable=0;points=[];" vertex="1" connectable="0" parent="Es9bNIUImqpmb22PlwWf-81">
          <mxGeometry x="0.15" y="3" relative="1" as="geometry">
            <mxPoint x="-5" y="-6" as="offset" />
          </mxGeometry>
        </mxCell>
        <mxCell id="Es9bNIUImqpmb22PlwWf-83" value="" style="endArrow=classic;html=1;rounded=0;exitX=0.5;exitY=1;exitDx=0;exitDy=0;entryX=0.5;entryY=0;entryDx=0;entryDy=0;" edge="1" parent="1">
          <mxGeometry relative="1" as="geometry">
            <mxPoint x="209" y="679.5" as="sourcePoint" />
            <mxPoint x="249" y="679.5" as="targetPoint" />
          </mxGeometry>
        </mxCell>
        <mxCell id="Es9bNIUImqpmb22PlwWf-84" value="h3" style="edgeLabel;html=1;align=center;verticalAlign=middle;resizable=0;points=[];" vertex="1" connectable="0" parent="Es9bNIUImqpmb22PlwWf-83">
          <mxGeometry x="0.15" y="3" relative="1" as="geometry">
            <mxPoint x="-5" y="-6" as="offset" />
          </mxGeometry>
        </mxCell>
        <mxCell id="Es9bNIUImqpmb22PlwWf-85" value="" style="endArrow=classic;html=1;rounded=0;exitX=0.5;exitY=1;exitDx=0;exitDy=0;entryX=0.5;entryY=0;entryDx=0;entryDy=0;" edge="1" parent="1">
          <mxGeometry relative="1" as="geometry">
            <mxPoint x="269" y="679.5" as="sourcePoint" />
            <mxPoint x="309" y="679.5" as="targetPoint" />
          </mxGeometry>
        </mxCell>
        <mxCell id="Es9bNIUImqpmb22PlwWf-86" value="h4" style="edgeLabel;html=1;align=center;verticalAlign=middle;resizable=0;points=[];" vertex="1" connectable="0" parent="Es9bNIUImqpmb22PlwWf-85">
          <mxGeometry x="0.15" y="3" relative="1" as="geometry">
            <mxPoint x="-5" y="-6" as="offset" />
          </mxGeometry>
        </mxCell>
        <mxCell id="Es9bNIUImqpmb22PlwWf-87" value="" style="endArrow=classic;html=1;rounded=0;entryX=0;entryY=0.5;entryDx=0;entryDy=0;" edge="1" parent="1">
          <mxGeometry relative="1" as="geometry">
            <mxPoint x="78" y="780" as="sourcePoint" />
            <mxPoint x="78" y="740" as="targetPoint" />
          </mxGeometry>
        </mxCell>
        <mxCell id="Es9bNIUImqpmb22PlwWf-88" value="x1" style="edgeLabel;resizable=0;html=1;;align=center;verticalAlign=middle;fontStyle=1" connectable="0" vertex="1" parent="Es9bNIUImqpmb22PlwWf-87">
          <mxGeometry relative="1" as="geometry">
            <mxPoint y="29" as="offset" />
          </mxGeometry>
        </mxCell>
        <mxCell id="Es9bNIUImqpmb22PlwWf-89" value="" style="endArrow=classic;html=1;rounded=0;entryX=0;entryY=0.5;entryDx=0;entryDy=0;" edge="1" parent="1">
          <mxGeometry relative="1" as="geometry">
            <mxPoint x="139" y="780" as="sourcePoint" />
            <mxPoint x="139" y="740" as="targetPoint" />
          </mxGeometry>
        </mxCell>
        <mxCell id="Es9bNIUImqpmb22PlwWf-90" value="x2" style="edgeLabel;resizable=0;html=1;;align=center;verticalAlign=middle;fontStyle=1" connectable="0" vertex="1" parent="Es9bNIUImqpmb22PlwWf-89">
          <mxGeometry relative="1" as="geometry">
            <mxPoint y="29" as="offset" />
          </mxGeometry>
        </mxCell>
        <mxCell id="Es9bNIUImqpmb22PlwWf-91" value="" style="endArrow=classic;html=1;rounded=0;entryX=0;entryY=0.5;entryDx=0;entryDy=0;" edge="1" parent="1">
          <mxGeometry relative="1" as="geometry">
            <mxPoint x="199" y="780" as="sourcePoint" />
            <mxPoint x="199" y="740" as="targetPoint" />
          </mxGeometry>
        </mxCell>
        <mxCell id="Es9bNIUImqpmb22PlwWf-92" value="x3" style="edgeLabel;resizable=0;html=1;;align=center;verticalAlign=middle;fontStyle=1" connectable="0" vertex="1" parent="Es9bNIUImqpmb22PlwWf-91">
          <mxGeometry relative="1" as="geometry">
            <mxPoint y="29" as="offset" />
          </mxGeometry>
        </mxCell>
        <mxCell id="Es9bNIUImqpmb22PlwWf-93" value="" style="endArrow=classic;html=1;rounded=0;entryX=0;entryY=0.5;entryDx=0;entryDy=0;" edge="1" parent="1">
          <mxGeometry relative="1" as="geometry">
            <mxPoint x="259" y="780" as="sourcePoint" />
            <mxPoint x="259" y="740" as="targetPoint" />
          </mxGeometry>
        </mxCell>
        <mxCell id="Es9bNIUImqpmb22PlwWf-94" value="x4" style="edgeLabel;resizable=0;html=1;;align=center;verticalAlign=middle;fontStyle=1" connectable="0" vertex="1" parent="Es9bNIUImqpmb22PlwWf-93">
          <mxGeometry relative="1" as="geometry">
            <mxPoint y="29" as="offset" />
          </mxGeometry>
        </mxCell>
        <mxCell id="Es9bNIUImqpmb22PlwWf-95" value="" style="endArrow=classic;html=1;rounded=0;entryX=0;entryY=0.5;entryDx=0;entryDy=0;" edge="1" parent="1">
          <mxGeometry relative="1" as="geometry">
            <mxPoint x="319" y="780" as="sourcePoint" />
            <mxPoint x="319" y="740" as="targetPoint" />
          </mxGeometry>
        </mxCell>
        <mxCell id="Es9bNIUImqpmb22PlwWf-96" value="x5" style="edgeLabel;resizable=0;html=1;;align=center;verticalAlign=middle;fontStyle=1" connectable="0" vertex="1" parent="Es9bNIUImqpmb22PlwWf-95">
          <mxGeometry relative="1" as="geometry">
            <mxPoint y="29" as="offset" />
          </mxGeometry>
        </mxCell>
        <mxCell id="Es9bNIUImqpmb22PlwWf-97" value="" style="endArrow=classic;html=1;rounded=0;entryX=0;entryY=0.5;entryDx=0;entryDy=0;exitX=1;exitY=0.5;exitDx=0;exitDy=0;" edge="1" parent="1" source="Es9bNIUImqpmb22PlwWf-74">
          <mxGeometry relative="1" as="geometry">
            <mxPoint x="78" y="610" as="sourcePoint" />
            <mxPoint x="78" y="570" as="targetPoint" />
          </mxGeometry>
        </mxCell>
        <mxCell id="Es9bNIUImqpmb22PlwWf-98" value="e1" style="edgeLabel;resizable=0;html=1;;align=center;verticalAlign=middle;fontStyle=1" connectable="0" vertex="1" parent="Es9bNIUImqpmb22PlwWf-97">
          <mxGeometry relative="1" as="geometry">
            <mxPoint x="1" y="-37" as="offset" />
          </mxGeometry>
        </mxCell>
        <mxCell id="Es9bNIUImqpmb22PlwWf-99" value="" style="endArrow=classic;html=1;rounded=0;entryX=0;entryY=0.5;entryDx=0;entryDy=0;exitX=1;exitY=0.5;exitDx=0;exitDy=0;" edge="1" parent="1">
          <mxGeometry relative="1" as="geometry">
            <mxPoint x="139" y="620" as="sourcePoint" />
            <mxPoint x="138" y="570" as="targetPoint" />
          </mxGeometry>
        </mxCell>
        <mxCell id="Es9bNIUImqpmb22PlwWf-100" value="e2" style="edgeLabel;resizable=0;html=1;;align=center;verticalAlign=middle;fontStyle=1" connectable="0" vertex="1" parent="Es9bNIUImqpmb22PlwWf-99">
          <mxGeometry relative="1" as="geometry">
            <mxPoint x="1" y="-37" as="offset" />
          </mxGeometry>
        </mxCell>
        <mxCell id="Es9bNIUImqpmb22PlwWf-101" value="" style="endArrow=classic;html=1;rounded=0;entryX=0;entryY=0.5;entryDx=0;entryDy=0;exitX=1;exitY=0.5;exitDx=0;exitDy=0;" edge="1" parent="1">
          <mxGeometry relative="1" as="geometry">
            <mxPoint x="199" y="620" as="sourcePoint" />
            <mxPoint x="198" y="570" as="targetPoint" />
          </mxGeometry>
        </mxCell>
        <mxCell id="Es9bNIUImqpmb22PlwWf-102" value="e3" style="edgeLabel;resizable=0;html=1;;align=center;verticalAlign=middle;fontStyle=1" connectable="0" vertex="1" parent="Es9bNIUImqpmb22PlwWf-101">
          <mxGeometry relative="1" as="geometry">
            <mxPoint x="1" y="-37" as="offset" />
          </mxGeometry>
        </mxCell>
        <mxCell id="Es9bNIUImqpmb22PlwWf-103" value="" style="endArrow=classic;html=1;rounded=0;entryX=0;entryY=0.5;entryDx=0;entryDy=0;exitX=1;exitY=0.5;exitDx=0;exitDy=0;" edge="1" parent="1">
          <mxGeometry relative="1" as="geometry">
            <mxPoint x="260" y="620" as="sourcePoint" />
            <mxPoint x="259" y="570" as="targetPoint" />
          </mxGeometry>
        </mxCell>
        <mxCell id="Es9bNIUImqpmb22PlwWf-104" value="e4" style="edgeLabel;resizable=0;html=1;;align=center;verticalAlign=middle;fontStyle=1" connectable="0" vertex="1" parent="Es9bNIUImqpmb22PlwWf-103">
          <mxGeometry relative="1" as="geometry">
            <mxPoint x="1" y="-37" as="offset" />
          </mxGeometry>
        </mxCell>
        <mxCell id="Es9bNIUImqpmb22PlwWf-105" value="" style="endArrow=classic;html=1;rounded=0;exitX=1;exitY=0.5;exitDx=0;exitDy=0;entryX=0.5;entryY=0;entryDx=0;entryDy=0;" edge="1" parent="1" target="Es9bNIUImqpmb22PlwWf-107">
          <mxGeometry relative="1" as="geometry">
            <mxPoint x="319.5" y="620" as="sourcePoint" />
            <mxPoint x="509" y="690" as="targetPoint" />
            <Array as="points">
              <mxPoint x="319" y="570" />
              <mxPoint x="429" y="570" />
              <mxPoint x="429" y="680" />
            </Array>
          </mxGeometry>
        </mxCell>
        <mxCell id="Es9bNIUImqpmb22PlwWf-106" value="e5" style="edgeLabel;resizable=0;html=1;;align=center;verticalAlign=middle;fontStyle=1" connectable="0" vertex="1" parent="Es9bNIUImqpmb22PlwWf-105">
          <mxGeometry relative="1" as="geometry">
            <mxPoint x="-110" y="-21" as="offset" />
          </mxGeometry>
        </mxCell>
        <mxCell id="Es9bNIUImqpmb22PlwWf-107" value="" style="rounded=1;whiteSpace=wrap;html=1;strokeWidth=2;fillWeight=4;hachureGap=8;hachureAngle=45;fillColor=#FF9933;sketch=1;rotation=-90;" vertex="1" parent="1">
          <mxGeometry x="449" y="670" width="120" height="20" as="geometry" />
        </mxCell>
        <mxCell id="Es9bNIUImqpmb22PlwWf-108" value="" style="rounded=1;whiteSpace=wrap;html=1;strokeWidth=2;fillWeight=4;hachureGap=8;hachureAngle=45;fillColor=#FF9933;sketch=1;rotation=-90;" vertex="1" parent="1">
          <mxGeometry x="509" y="670" width="120" height="20" as="geometry" />
        </mxCell>
        <mxCell id="Es9bNIUImqpmb22PlwWf-109" value="" style="rounded=1;whiteSpace=wrap;html=1;strokeWidth=2;fillWeight=4;hachureGap=8;hachureAngle=45;fillColor=#FF9933;sketch=1;rotation=-90;" vertex="1" parent="1">
          <mxGeometry x="569" y="670" width="120" height="20" as="geometry" />
        </mxCell>
        <mxCell id="Es9bNIUImqpmb22PlwWf-110" value="" style="rounded=1;whiteSpace=wrap;html=1;strokeWidth=2;fillWeight=4;hachureGap=8;hachureAngle=45;fillColor=#FF9933;sketch=1;rotation=-90;" vertex="1" parent="1">
          <mxGeometry x="629" y="670" width="120" height="20" as="geometry" />
        </mxCell>
        <mxCell id="Es9bNIUImqpmb22PlwWf-111" value="" style="rounded=1;whiteSpace=wrap;html=1;strokeWidth=2;fillWeight=4;hachureGap=8;hachureAngle=45;fillColor=#FF9933;sketch=1;rotation=-90;" vertex="1" parent="1">
          <mxGeometry x="689" y="670" width="120" height="20" as="geometry" />
        </mxCell>
        <mxCell id="Es9bNIUImqpmb22PlwWf-112" value="" style="endArrow=classic;html=1;rounded=0;exitX=0.5;exitY=1;exitDx=0;exitDy=0;entryX=0.5;entryY=0;entryDx=0;entryDy=0;" edge="1" parent="1" source="Es9bNIUImqpmb22PlwWf-107" target="Es9bNIUImqpmb22PlwWf-108">
          <mxGeometry relative="1" as="geometry">
            <mxPoint x="779" y="740" as="sourcePoint" />
            <mxPoint x="879" y="740" as="targetPoint" />
          </mxGeometry>
        </mxCell>
        <mxCell id="Es9bNIUImqpmb22PlwWf-113" value="h1" style="edgeLabel;html=1;align=center;verticalAlign=middle;resizable=0;points=[];" vertex="1" connectable="0" parent="Es9bNIUImqpmb22PlwWf-112">
          <mxGeometry x="0.15" y="3" relative="1" as="geometry">
            <mxPoint x="-5" y="-6" as="offset" />
          </mxGeometry>
        </mxCell>
        <mxCell id="Es9bNIUImqpmb22PlwWf-114" value="" style="endArrow=classic;html=1;rounded=0;exitX=0.5;exitY=1;exitDx=0;exitDy=0;entryX=0.5;entryY=0;entryDx=0;entryDy=0;" edge="1" parent="1">
          <mxGeometry relative="1" as="geometry">
            <mxPoint x="579" y="679.5" as="sourcePoint" />
            <mxPoint x="619" y="679.5" as="targetPoint" />
          </mxGeometry>
        </mxCell>
        <mxCell id="Es9bNIUImqpmb22PlwWf-115" value="h2" style="edgeLabel;html=1;align=center;verticalAlign=middle;resizable=0;points=[];" vertex="1" connectable="0" parent="Es9bNIUImqpmb22PlwWf-114">
          <mxGeometry x="0.15" y="3" relative="1" as="geometry">
            <mxPoint x="-5" y="-6" as="offset" />
          </mxGeometry>
        </mxCell>
        <mxCell id="Es9bNIUImqpmb22PlwWf-116" value="" style="endArrow=classic;html=1;rounded=0;exitX=0.5;exitY=1;exitDx=0;exitDy=0;entryX=0.5;entryY=0;entryDx=0;entryDy=0;" edge="1" parent="1">
          <mxGeometry relative="1" as="geometry">
            <mxPoint x="639" y="679.5" as="sourcePoint" />
            <mxPoint x="679" y="679.5" as="targetPoint" />
          </mxGeometry>
        </mxCell>
        <mxCell id="Es9bNIUImqpmb22PlwWf-117" value="h3" style="edgeLabel;html=1;align=center;verticalAlign=middle;resizable=0;points=[];" vertex="1" connectable="0" parent="Es9bNIUImqpmb22PlwWf-116">
          <mxGeometry x="0.15" y="3" relative="1" as="geometry">
            <mxPoint x="-5" y="-6" as="offset" />
          </mxGeometry>
        </mxCell>
        <mxCell id="Es9bNIUImqpmb22PlwWf-118" value="" style="endArrow=classic;html=1;rounded=0;exitX=0.5;exitY=1;exitDx=0;exitDy=0;entryX=0.5;entryY=0;entryDx=0;entryDy=0;" edge="1" parent="1">
          <mxGeometry relative="1" as="geometry">
            <mxPoint x="699" y="679.5" as="sourcePoint" />
            <mxPoint x="739" y="679.5" as="targetPoint" />
          </mxGeometry>
        </mxCell>
        <mxCell id="Es9bNIUImqpmb22PlwWf-119" value="h4" style="edgeLabel;html=1;align=center;verticalAlign=middle;resizable=0;points=[];" vertex="1" connectable="0" parent="Es9bNIUImqpmb22PlwWf-118">
          <mxGeometry x="0.15" y="3" relative="1" as="geometry">
            <mxPoint x="-5" y="-6" as="offset" />
          </mxGeometry>
        </mxCell>
        <mxCell id="Es9bNIUImqpmb22PlwWf-120" value="" style="endArrow=classic;html=1;rounded=0;entryX=0.5;entryY=1;entryDx=0;entryDy=0;" edge="1" parent="1" target="Es9bNIUImqpmb22PlwWf-141">
          <mxGeometry relative="1" as="geometry">
            <mxPoint x="509" y="890" as="sourcePoint" />
            <mxPoint x="580" y="910" as="targetPoint" />
          </mxGeometry>
        </mxCell>
        <mxCell id="Es9bNIUImqpmb22PlwWf-121" value="s0" style="edgeLabel;resizable=0;html=1;;align=center;verticalAlign=middle;fontStyle=1" connectable="0" vertex="1" parent="Es9bNIUImqpmb22PlwWf-120">
          <mxGeometry relative="1" as="geometry">
            <mxPoint y="29" as="offset" />
          </mxGeometry>
        </mxCell>
        <mxCell id="Es9bNIUImqpmb22PlwWf-122" value="" style="endArrow=classic;html=1;rounded=0;entryX=0;entryY=0.5;entryDx=0;entryDy=0;" edge="1" parent="1">
          <mxGeometry relative="1" as="geometry">
            <mxPoint x="569" y="780" as="sourcePoint" />
            <mxPoint x="569" y="740" as="targetPoint" />
          </mxGeometry>
        </mxCell>
        <mxCell id="Es9bNIUImqpmb22PlwWf-123" value="o1" style="edgeLabel;resizable=0;html=1;;align=center;verticalAlign=middle;fontStyle=1" connectable="0" vertex="1" parent="Es9bNIUImqpmb22PlwWf-122">
          <mxGeometry relative="1" as="geometry">
            <mxPoint y="29" as="offset" />
          </mxGeometry>
        </mxCell>
        <mxCell id="Es9bNIUImqpmb22PlwWf-124" value="" style="endArrow=classic;html=1;rounded=0;entryX=0;entryY=0.5;entryDx=0;entryDy=0;" edge="1" parent="1">
          <mxGeometry relative="1" as="geometry">
            <mxPoint x="629" y="780" as="sourcePoint" />
            <mxPoint x="629" y="740" as="targetPoint" />
          </mxGeometry>
        </mxCell>
        <mxCell id="Es9bNIUImqpmb22PlwWf-125" value="o2" style="edgeLabel;resizable=0;html=1;;align=center;verticalAlign=middle;fontStyle=1" connectable="0" vertex="1" parent="Es9bNIUImqpmb22PlwWf-124">
          <mxGeometry relative="1" as="geometry">
            <mxPoint y="29" as="offset" />
          </mxGeometry>
        </mxCell>
        <mxCell id="Es9bNIUImqpmb22PlwWf-130" value="" style="endArrow=classic;html=1;rounded=0;entryX=0;entryY=0.5;entryDx=0;entryDy=0;exitX=1;exitY=0.5;exitDx=0;exitDy=0;" edge="1" parent="1">
          <mxGeometry relative="1" as="geometry">
            <mxPoint x="508" y="620" as="sourcePoint" />
            <mxPoint x="507" y="570" as="targetPoint" />
          </mxGeometry>
        </mxCell>
        <mxCell id="Es9bNIUImqpmb22PlwWf-131" value="o1" style="edgeLabel;resizable=0;html=1;;align=center;verticalAlign=middle;fontStyle=1" connectable="0" vertex="1" parent="Es9bNIUImqpmb22PlwWf-130">
          <mxGeometry relative="1" as="geometry">
            <mxPoint x="1" y="-37" as="offset" />
          </mxGeometry>
        </mxCell>
        <mxCell id="Es9bNIUImqpmb22PlwWf-132" value="" style="endArrow=classic;html=1;rounded=0;entryX=0;entryY=0.5;entryDx=0;entryDy=0;exitX=1;exitY=0.5;exitDx=0;exitDy=0;" edge="1" parent="1">
          <mxGeometry relative="1" as="geometry">
            <mxPoint x="568" y="620" as="sourcePoint" />
            <mxPoint x="567" y="570" as="targetPoint" />
          </mxGeometry>
        </mxCell>
        <mxCell id="Es9bNIUImqpmb22PlwWf-133" value="o2" style="edgeLabel;resizable=0;html=1;;align=center;verticalAlign=middle;fontStyle=1" connectable="0" vertex="1" parent="Es9bNIUImqpmb22PlwWf-132">
          <mxGeometry relative="1" as="geometry">
            <mxPoint x="1" y="-37" as="offset" />
          </mxGeometry>
        </mxCell>
        <mxCell id="Es9bNIUImqpmb22PlwWf-134" value="" style="endArrow=classic;html=1;rounded=0;entryX=0;entryY=0.5;entryDx=0;entryDy=0;exitX=1;exitY=0.5;exitDx=0;exitDy=0;" edge="1" parent="1">
          <mxGeometry relative="1" as="geometry">
            <mxPoint x="628" y="620" as="sourcePoint" />
            <mxPoint x="627" y="570" as="targetPoint" />
          </mxGeometry>
        </mxCell>
        <mxCell id="Es9bNIUImqpmb22PlwWf-135" value="o3" style="edgeLabel;resizable=0;html=1;;align=center;verticalAlign=middle;fontStyle=1" connectable="0" vertex="1" parent="Es9bNIUImqpmb22PlwWf-134">
          <mxGeometry relative="1" as="geometry">
            <mxPoint x="1" y="-37" as="offset" />
          </mxGeometry>
        </mxCell>
        <mxCell id="Es9bNIUImqpmb22PlwWf-136" value="" style="endArrow=classic;html=1;rounded=0;entryX=0;entryY=0.5;entryDx=0;entryDy=0;exitX=1;exitY=0.5;exitDx=0;exitDy=0;" edge="1" parent="1">
          <mxGeometry relative="1" as="geometry">
            <mxPoint x="689" y="620" as="sourcePoint" />
            <mxPoint x="688" y="570" as="targetPoint" />
          </mxGeometry>
        </mxCell>
        <mxCell id="Es9bNIUImqpmb22PlwWf-137" value="o4" style="edgeLabel;resizable=0;html=1;;align=center;verticalAlign=middle;fontStyle=1" connectable="0" vertex="1" parent="Es9bNIUImqpmb22PlwWf-136">
          <mxGeometry relative="1" as="geometry">
            <mxPoint x="1" y="-37" as="offset" />
          </mxGeometry>
        </mxCell>
        <mxCell id="Es9bNIUImqpmb22PlwWf-138" value="" style="endArrow=classic;html=1;rounded=0;entryX=0;entryY=0.5;entryDx=0;entryDy=0;exitX=1;exitY=0.5;exitDx=0;exitDy=0;" edge="1" parent="1">
          <mxGeometry relative="1" as="geometry">
            <mxPoint x="749.5" y="620" as="sourcePoint" />
            <mxPoint x="748.5" y="570" as="targetPoint" />
          </mxGeometry>
        </mxCell>
        <mxCell id="Es9bNIUImqpmb22PlwWf-139" value="o5" style="edgeLabel;resizable=0;html=1;;align=center;verticalAlign=middle;fontStyle=1" connectable="0" vertex="1" parent="Es9bNIUImqpmb22PlwWf-138">
          <mxGeometry relative="1" as="geometry">
            <mxPoint x="1" y="-37" as="offset" />
          </mxGeometry>
        </mxCell>
        <mxCell id="Es9bNIUImqpmb22PlwWf-144" style="edgeStyle=orthogonalEdgeStyle;rounded=0;orthogonalLoop=1;jettySize=auto;html=1;entryX=0;entryY=0.5;entryDx=0;entryDy=0;" edge="1" parent="1" target="Es9bNIUImqpmb22PlwWf-107">
          <mxGeometry relative="1" as="geometry">
            <mxPoint x="509" y="780" as="sourcePoint" />
          </mxGeometry>
        </mxCell>
        <mxCell id="Es9bNIUImqpmb22PlwWf-140" value="||" style="ellipse;whiteSpace=wrap;html=1;aspect=fixed;align=center;" vertex="1" parent="1">
          <mxGeometry x="499" y="780" width="20" height="20" as="geometry" />
        </mxCell>
        <mxCell id="Es9bNIUImqpmb22PlwWf-141" value="A" style="ellipse;whiteSpace=wrap;html=1;aspect=fixed;" vertex="1" parent="1">
          <mxGeometry x="499" y="830" width="20" height="20" as="geometry" />
        </mxCell>
        <mxCell id="Es9bNIUImqpmb22PlwWf-146" value="" style="endArrow=classic;html=1;rounded=0;entryX=0;entryY=0.5;entryDx=0;entryDy=0;exitX=1;exitY=0.5;exitDx=0;exitDy=0;" edge="1" parent="1" target="Es9bNIUImqpmb22PlwWf-203">
          <mxGeometry relative="1" as="geometry">
            <mxPoint x="79" y="540" as="sourcePoint" />
            <mxPoint x="78" y="490" as="targetPoint" />
            <Array as="points">
              <mxPoint x="79" y="520" />
              <mxPoint x="400" y="520" />
              <mxPoint x="400" y="920" />
            </Array>
          </mxGeometry>
        </mxCell>
        <mxCell id="Es9bNIUImqpmb22PlwWf-149" value="" style="endArrow=classic;html=1;rounded=0;entryX=0;entryY=0.5;entryDx=0;entryDy=0;" edge="1" parent="1" target="Es9bNIUImqpmb22PlwWf-191">
          <mxGeometry relative="1" as="geometry">
            <mxPoint x="140" y="540" as="sourcePoint" />
            <mxPoint x="490" y="840" as="targetPoint" />
            <Array as="points">
              <mxPoint x="140" y="520" />
              <mxPoint x="400" y="520" />
              <mxPoint x="400" y="920" />
            </Array>
          </mxGeometry>
        </mxCell>
        <mxCell id="Es9bNIUImqpmb22PlwWf-150" value="" style="endArrow=classic;html=1;rounded=0;entryX=0;entryY=0.5;entryDx=0;entryDy=0;" edge="1" parent="1" target="Es9bNIUImqpmb22PlwWf-179">
          <mxGeometry relative="1" as="geometry">
            <mxPoint x="199" y="540" as="sourcePoint" />
            <mxPoint x="630" y="850" as="targetPoint" />
            <Array as="points">
              <mxPoint x="199" y="520" />
              <mxPoint x="400" y="520" />
              <mxPoint x="400" y="920" />
            </Array>
          </mxGeometry>
        </mxCell>
        <mxCell id="Es9bNIUImqpmb22PlwWf-151" value="" style="endArrow=classic;html=1;rounded=0;entryX=0;entryY=0.5;entryDx=0;entryDy=0;" edge="1" parent="1" target="Es9bNIUImqpmb22PlwWf-167">
          <mxGeometry relative="1" as="geometry">
            <mxPoint x="259" y="540" as="sourcePoint" />
            <mxPoint x="570" y="850" as="targetPoint" />
            <Array as="points">
              <mxPoint x="259" y="520" />
              <mxPoint x="400" y="520" />
              <mxPoint x="400" y="920" />
            </Array>
          </mxGeometry>
        </mxCell>
        <mxCell id="Es9bNIUImqpmb22PlwWf-152" value="" style="endArrow=classic;html=1;rounded=0;" edge="1" parent="1">
          <mxGeometry relative="1" as="geometry">
            <mxPoint x="319" y="540" as="sourcePoint" />
            <mxPoint x="500" y="840" as="targetPoint" />
            <Array as="points">
              <mxPoint x="319" y="520" />
              <mxPoint x="400" y="520" />
              <mxPoint x="400" y="920" />
            </Array>
          </mxGeometry>
        </mxCell>
        <mxCell id="Es9bNIUImqpmb22PlwWf-153" value="" style="endArrow=classic;html=1;rounded=0;entryX=0.5;entryY=1;entryDx=0;entryDy=0;" edge="1" parent="1" target="Es9bNIUImqpmb22PlwWf-140">
          <mxGeometry relative="1" as="geometry">
            <mxPoint x="509" y="830" as="sourcePoint" />
            <mxPoint x="519" y="860" as="targetPoint" />
          </mxGeometry>
        </mxCell>
        <mxCell id="Es9bNIUImqpmb22PlwWf-163" value="" style="endArrow=classic;html=1;rounded=0;entryX=0.5;entryY=1;entryDx=0;entryDy=0;" edge="1" parent="1" target="Es9bNIUImqpmb22PlwWf-167">
          <mxGeometry relative="1" as="geometry">
            <mxPoint x="569" y="890" as="sourcePoint" />
            <mxPoint x="640" y="910" as="targetPoint" />
          </mxGeometry>
        </mxCell>
        <mxCell id="Es9bNIUImqpmb22PlwWf-164" value="o1" style="edgeLabel;resizable=0;html=1;;align=center;verticalAlign=middle;fontStyle=1" connectable="0" vertex="1" parent="Es9bNIUImqpmb22PlwWf-163">
          <mxGeometry relative="1" as="geometry">
            <mxPoint y="29" as="offset" />
          </mxGeometry>
        </mxCell>
        <mxCell id="Es9bNIUImqpmb22PlwWf-165" style="edgeStyle=orthogonalEdgeStyle;rounded=0;orthogonalLoop=1;jettySize=auto;html=1;entryX=0;entryY=0.5;entryDx=0;entryDy=0;" edge="1" parent="1">
          <mxGeometry relative="1" as="geometry">
            <mxPoint x="569" y="780" as="sourcePoint" />
            <mxPoint x="569" y="740" as="targetPoint" />
          </mxGeometry>
        </mxCell>
        <mxCell id="Es9bNIUImqpmb22PlwWf-166" value="||" style="ellipse;whiteSpace=wrap;html=1;aspect=fixed;align=center;" vertex="1" parent="1">
          <mxGeometry x="559" y="780" width="20" height="20" as="geometry" />
        </mxCell>
        <mxCell id="Es9bNIUImqpmb22PlwWf-167" value="A" style="ellipse;whiteSpace=wrap;html=1;aspect=fixed;" vertex="1" parent="1">
          <mxGeometry x="559" y="830" width="20" height="20" as="geometry" />
        </mxCell>
        <mxCell id="Es9bNIUImqpmb22PlwWf-168" value="" style="endArrow=classic;html=1;rounded=0;entryX=0.5;entryY=1;entryDx=0;entryDy=0;" edge="1" parent="1" target="Es9bNIUImqpmb22PlwWf-166">
          <mxGeometry relative="1" as="geometry">
            <mxPoint x="569" y="830" as="sourcePoint" />
            <mxPoint x="579" y="860" as="targetPoint" />
          </mxGeometry>
        </mxCell>
        <mxCell id="Es9bNIUImqpmb22PlwWf-175" value="" style="endArrow=classic;html=1;rounded=0;entryX=0.5;entryY=1;entryDx=0;entryDy=0;" edge="1" parent="1" target="Es9bNIUImqpmb22PlwWf-179">
          <mxGeometry relative="1" as="geometry">
            <mxPoint x="629" y="890" as="sourcePoint" />
            <mxPoint x="700" y="910" as="targetPoint" />
          </mxGeometry>
        </mxCell>
        <mxCell id="Es9bNIUImqpmb22PlwWf-176" value="o2" style="edgeLabel;resizable=0;html=1;;align=center;verticalAlign=middle;fontStyle=1" connectable="0" vertex="1" parent="Es9bNIUImqpmb22PlwWf-175">
          <mxGeometry relative="1" as="geometry">
            <mxPoint y="29" as="offset" />
          </mxGeometry>
        </mxCell>
        <mxCell id="Es9bNIUImqpmb22PlwWf-177" style="edgeStyle=orthogonalEdgeStyle;rounded=0;orthogonalLoop=1;jettySize=auto;html=1;entryX=0;entryY=0.5;entryDx=0;entryDy=0;" edge="1" parent="1">
          <mxGeometry relative="1" as="geometry">
            <mxPoint x="629" y="780" as="sourcePoint" />
            <mxPoint x="629" y="740" as="targetPoint" />
          </mxGeometry>
        </mxCell>
        <mxCell id="Es9bNIUImqpmb22PlwWf-178" value="||" style="ellipse;whiteSpace=wrap;html=1;aspect=fixed;align=center;" vertex="1" parent="1">
          <mxGeometry x="619" y="780" width="20" height="20" as="geometry" />
        </mxCell>
        <mxCell id="Es9bNIUImqpmb22PlwWf-179" value="A" style="ellipse;whiteSpace=wrap;html=1;aspect=fixed;" vertex="1" parent="1">
          <mxGeometry x="619" y="830" width="20" height="20" as="geometry" />
        </mxCell>
        <mxCell id="Es9bNIUImqpmb22PlwWf-180" value="" style="endArrow=classic;html=1;rounded=0;entryX=0.5;entryY=1;entryDx=0;entryDy=0;" edge="1" parent="1" target="Es9bNIUImqpmb22PlwWf-178">
          <mxGeometry relative="1" as="geometry">
            <mxPoint x="629" y="830" as="sourcePoint" />
            <mxPoint x="639" y="860" as="targetPoint" />
          </mxGeometry>
        </mxCell>
        <mxCell id="Es9bNIUImqpmb22PlwWf-187" value="" style="endArrow=classic;html=1;rounded=0;entryX=0.5;entryY=1;entryDx=0;entryDy=0;" edge="1" parent="1" target="Es9bNIUImqpmb22PlwWf-191">
          <mxGeometry relative="1" as="geometry">
            <mxPoint x="690" y="890" as="sourcePoint" />
            <mxPoint x="761" y="910" as="targetPoint" />
          </mxGeometry>
        </mxCell>
        <mxCell id="Es9bNIUImqpmb22PlwWf-188" value="o3" style="edgeLabel;resizable=0;html=1;;align=center;verticalAlign=middle;fontStyle=1" connectable="0" vertex="1" parent="Es9bNIUImqpmb22PlwWf-187">
          <mxGeometry relative="1" as="geometry">
            <mxPoint y="29" as="offset" />
          </mxGeometry>
        </mxCell>
        <mxCell id="Es9bNIUImqpmb22PlwWf-189" style="edgeStyle=orthogonalEdgeStyle;rounded=0;orthogonalLoop=1;jettySize=auto;html=1;entryX=0;entryY=0.5;entryDx=0;entryDy=0;" edge="1" parent="1">
          <mxGeometry relative="1" as="geometry">
            <mxPoint x="690" y="780" as="sourcePoint" />
            <mxPoint x="690" y="740" as="targetPoint" />
          </mxGeometry>
        </mxCell>
        <mxCell id="Es9bNIUImqpmb22PlwWf-190" value="||" style="ellipse;whiteSpace=wrap;html=1;aspect=fixed;align=center;" vertex="1" parent="1">
          <mxGeometry x="680" y="780" width="20" height="20" as="geometry" />
        </mxCell>
        <mxCell id="Es9bNIUImqpmb22PlwWf-191" value="A" style="ellipse;whiteSpace=wrap;html=1;aspect=fixed;" vertex="1" parent="1">
          <mxGeometry x="680" y="830" width="20" height="20" as="geometry" />
        </mxCell>
        <mxCell id="Es9bNIUImqpmb22PlwWf-192" value="" style="endArrow=classic;html=1;rounded=0;entryX=0.5;entryY=1;entryDx=0;entryDy=0;" edge="1" parent="1" target="Es9bNIUImqpmb22PlwWf-190">
          <mxGeometry relative="1" as="geometry">
            <mxPoint x="690" y="830" as="sourcePoint" />
            <mxPoint x="700" y="860" as="targetPoint" />
          </mxGeometry>
        </mxCell>
        <mxCell id="Es9bNIUImqpmb22PlwWf-199" value="" style="endArrow=classic;html=1;rounded=0;entryX=0.5;entryY=1;entryDx=0;entryDy=0;" edge="1" parent="1" target="Es9bNIUImqpmb22PlwWf-203">
          <mxGeometry relative="1" as="geometry">
            <mxPoint x="749" y="890" as="sourcePoint" />
            <mxPoint x="820" y="910" as="targetPoint" />
          </mxGeometry>
        </mxCell>
        <mxCell id="Es9bNIUImqpmb22PlwWf-200" value="o4" style="edgeLabel;resizable=0;html=1;;align=center;verticalAlign=middle;fontStyle=1" connectable="0" vertex="1" parent="Es9bNIUImqpmb22PlwWf-199">
          <mxGeometry relative="1" as="geometry">
            <mxPoint y="29" as="offset" />
          </mxGeometry>
        </mxCell>
        <mxCell id="Es9bNIUImqpmb22PlwWf-201" style="edgeStyle=orthogonalEdgeStyle;rounded=0;orthogonalLoop=1;jettySize=auto;html=1;entryX=0;entryY=0.5;entryDx=0;entryDy=0;" edge="1" parent="1">
          <mxGeometry relative="1" as="geometry">
            <mxPoint x="749" y="780" as="sourcePoint" />
            <mxPoint x="749" y="740" as="targetPoint" />
          </mxGeometry>
        </mxCell>
        <mxCell id="Es9bNIUImqpmb22PlwWf-202" value="||" style="ellipse;whiteSpace=wrap;html=1;aspect=fixed;align=center;" vertex="1" parent="1">
          <mxGeometry x="739" y="780" width="20" height="20" as="geometry" />
        </mxCell>
        <mxCell id="Es9bNIUImqpmb22PlwWf-203" value="A" style="ellipse;whiteSpace=wrap;html=1;aspect=fixed;" vertex="1" parent="1">
          <mxGeometry x="739" y="830" width="20" height="20" as="geometry" />
        </mxCell>
        <mxCell id="Es9bNIUImqpmb22PlwWf-204" value="" style="endArrow=classic;html=1;rounded=0;entryX=0.5;entryY=1;entryDx=0;entryDy=0;" edge="1" parent="1" target="Es9bNIUImqpmb22PlwWf-202">
          <mxGeometry relative="1" as="geometry">
            <mxPoint x="749" y="830" as="sourcePoint" />
            <mxPoint x="759" y="860" as="targetPoint" />
          </mxGeometry>
        </mxCell>
        <mxCell id="Es9bNIUImqpmb22PlwWf-205" value="" style="endArrow=classic;html=1;rounded=0;" edge="1" parent="1">
          <mxGeometry relative="1" as="geometry">
            <mxPoint x="520" y="900" as="sourcePoint" />
            <mxPoint x="520" y="790" as="targetPoint" />
            <Array as="points">
              <mxPoint x="540" y="900" />
              <mxPoint x="540" y="790" />
            </Array>
          </mxGeometry>
        </mxCell>
        <mxCell id="Es9bNIUImqpmb22PlwWf-206" value="" style="endArrow=classic;html=1;rounded=0;" edge="1" parent="1">
          <mxGeometry relative="1" as="geometry">
            <mxPoint x="579" y="900" as="sourcePoint" />
            <mxPoint x="579" y="790" as="targetPoint" />
            <Array as="points">
              <mxPoint x="599" y="900" />
              <mxPoint x="599" y="790" />
            </Array>
          </mxGeometry>
        </mxCell>
        <mxCell id="Es9bNIUImqpmb22PlwWf-207" value="" style="endArrow=classic;html=1;rounded=0;" edge="1" parent="1">
          <mxGeometry relative="1" as="geometry">
            <mxPoint x="640" y="900" as="sourcePoint" />
            <mxPoint x="640" y="790" as="targetPoint" />
            <Array as="points">
              <mxPoint x="660" y="900" />
              <mxPoint x="660" y="790" />
            </Array>
          </mxGeometry>
        </mxCell>
        <mxCell id="Es9bNIUImqpmb22PlwWf-208" value="" style="endArrow=classic;html=1;rounded=0;" edge="1" parent="1">
          <mxGeometry relative="1" as="geometry">
            <mxPoint x="700" y="900" as="sourcePoint" />
            <mxPoint x="700" y="790" as="targetPoint" />
            <Array as="points">
              <mxPoint x="720" y="900" />
              <mxPoint x="720" y="790" />
            </Array>
          </mxGeometry>
        </mxCell>
        <mxCell id="Es9bNIUImqpmb22PlwWf-209" value="" style="endArrow=classic;html=1;rounded=0;" edge="1" parent="1">
          <mxGeometry relative="1" as="geometry">
            <mxPoint x="760" y="900" as="sourcePoint" />
            <mxPoint x="760" y="790" as="targetPoint" />
            <Array as="points">
              <mxPoint x="780" y="900" />
              <mxPoint x="780" y="790" />
            </Array>
          </mxGeometry>
        </mxCell>
      </root>
    </mxGraphModel>
  </diagram>
</mxfile>
